:SAMPLES-PER-SECOND 30
:FULLY-SPECIFIED
:DEGREES
147
root  54.7671 34.5399 -58.7893 12.9699 -38.0995 -2.03823
RightUpLeg  -15.7792 -20.1498 4.38038
RightLeg  12.7322 -5.45649 -0.866234
RightFoot  -0.351776 -0.00162251 0.106333
RightToes  -21.9328 -0.0924931 -0.192178
Spine  -2.31105 -0.315458 -0.379751
Spine1  -4.57801 -0.952879 -0.154502
HEad  -70.3734 -6.7082 8.44375
LeftShoulder1  -1.94126e-019 -3.10601e-018 -2.51263e-017
LeftArm  -22.8145 20.2329 -67.5558
LeftForeArm  33.2063 -17.133 -3.01901
LeftHand  -0.455996 1.13495 12.4142
RightShoulder  -4.96962e-017 0 -2.36833e-017
RightArm  -46.2671 -29.0142 73.8379
RightForeArm  64.9161 6.58895 1.10485
RightHand  -0.28325 -2.448 -10.8642
LeftUpLeg  -9.12797 13.644 -2.13602
LeftLeg  6.93989 19.9732 1.11303
LeftFoot  1.51522 -0.00445299 0.641442
LeftToes  -19.4191 1.87998e-006 4.79886e-008
148
root  54.8093 34.5904 -58.9739 13.2811 -40.3049 -2.42894
RightUpLeg  -15.2421 -18.0245 4.61237
RightLeg  10.7113 -5.44103 -0.66802
RightFoot  0.9646 0.00683592 -0.00784025
RightToes  -22.9381 -0.0912881 -0.195578
Spine  -2.05103 -0.586327 -0.261593
Spine1  -4.07976 -1.41321 0.113822
HEad  -71.6158 -4.33024 8.98874
LeftShoulder1  -1.94126e-019 -3.10601e-018 -2.51263e-017
LeftArm  -23.9904 20.8537 -69.4172
LeftForeArm  31.0483 -14.6242 -2.60528
LeftHand  -0.394633 1.91734 13.0679
RightShoulder  -4.96962e-017 0 -2.36833e-017
RightArm  -45.5342 -28.1219 74.6154
RightForeArm  63.5106 7.8357 1.32481
RightHand  -0.316072 -1.79058 -10.0162
LeftUpLeg  -9.03696 14.443 -2.10096
LeftLeg  6.39861 21.5337 0.996996
LeftFoot  1.78771 -0.0100676 0.806863
LeftToes  -18.8942 1.87998e-006 4.79886e-008
149
root  54.8483 34.5801 -59.1209 13.0525 -41.8135 -2.42696
RightUpLeg  -15.2536 -19.3999 4.84383
RightLeg  10.2218 -2.72595 -0.311092
RightFoot  1.50765 0.00756407 0.00489108
RightToes  -22.6257 -0.089777 -0.197591
Spine  -1.74683 -0.84372 -0.243341
Spine1  -3.48409 -1.87859 0.163859
HEad  -72.3619 -2.98527 9.61523
LeftShoulder1  -1.94126e-019 -3.10601e-018 -2.51263e-017
LeftArm  -22.0348 20.7961 -71.2738
LeftForeArm  28.4551 -12.6969 -2.25654
LeftHand  -0.373564 1.93372 12.4137
RightShoulder  -4.96962e-017 0 -2.36833e-017
RightArm  -42.8058 -27.6138 75.5659
RightForeArm  60.8441 9.64252 1.51736
RightHand  -0.358892 -1.25871 -9.99268
LeftUpLeg  -9.46048 14.7592 -2.21081
LeftLeg  7.65497 22.7529 1.53774
LeftFoot  1.05098 -0.0035632 0.5501
LeftToes  -18.2553 1.87998e-006 4.79886e-008
150
root  54.8574 34.5516 -59.2208 12.8463 -43.9583 -2.4501
RightUpLeg  -15.2645 -18.2401 4.76517
RightLeg  10.0968 -1.7986 -0.201021
RightFoot  1.94381 0.00904913 0.0114099
RightToes  -21.8329 -0.0880926 -0.191393
Spine  -1.54553 -0.702713 -0.269204
Spine1  -3.09395 -1.57295 0.0973344
HEad  -72.1123 -2.41372 9.8516
LeftShoulder1  -1.94126e-019 -3.10601e-018 -2.51263e-017
LeftArm  -19.8832 20.2408 -73.3128
LeftForeArm  31.2535 -11.1767 -1.97423
LeftHand  -0.422275 0.935001 10.9921
RightShoulder  -4.96962e-017 0 -2.36833e-017
RightArm  -39.8711 -27.3148 76.4051
RightForeArm  59.2379 11.36 1.51707
RightHand  -0.323756 -1.05441 -8.5968
LeftUpLeg  -9.65368 16.6035 -2.34867
LeftLeg  8.71379 22.9209 1.96289
LeftFoot  0.486795 -0.00066067 0.317149
LeftToes  -18.408 1.87998e-006 4.79886e-008
151
root  54.8384 34.5469 -59.272 12.7944 -46.4106 -2.56078
RightUpLeg  -14.9463 -15.146 4.49721
RightLeg  9.41726 -2.50271 -0.249955
RightFoot  2.7801 0.0141907 -0.0415574
RightToes  -20.8711 -0.0863676 -0.183789
Spine  -1.49066 -0.497622 -0.224102
Spine1  -3.00189 -1.12825 0.171586
HEad  -70.8446 -1.72311 9.37523
LeftShoulder1  -1.94126e-019 -3.10601e-018 -2.51263e-017
LeftArm  -19.096 19.9637 -75.8075
LeftForeArm  37.4431 -10.0916 -1.77124
LeftHand  -0.452511 -0.375926 9.20883
RightShoulder  -4.96962e-017 0 -2.36833e-017
RightArm  -37.0894 -26.922 76.878
RightForeArm  58.4107 12.7163 1.40266
RightHand  -0.344302 -0.895419 -8.84302
LeftUpLeg  -9.54146 18.6066 -2.44845
LeftLeg  9.18585 23.1894 2.17178
LeftFoot  0.294097 -0.000202017 0.240374
LeftToes  -18.9515 1.87998e-006 4.79886e-008
152
root  54.7919 34.5626 -59.2836 12.6879 -48.2828 -2.69161
RightUpLeg  -14.7994 -14.179 4.43109
RightLeg  9.35369 -1.6711 -0.16473
RightFoot  3.08876 0.0125248 -0.00519892
RightToes  -20.5413 -0.0844966 -0.18116
Spine  -1.53156 -0.461971 -0.0964721
Spine1  -3.09708 -1.01493 0.426345
HEad  -68.9063 -1.06705 8.53656
LeftShoulder1  -1.94126e-019 -3.10601e-018 -2.51263e-017
LeftArm  -18.7353 20.6838 -78.4377
LeftForeArm  40.9093 -11.2586 -1.97878
LeftHand  -0.486647 -1.09878 8.85129
RightShoulder  -4.96962e-017 0 -2.36833e-017
RightArm  -34.6957 -26.5513 76.9514
RightForeArm  57.0743 13.596 1.29775
RightHand  -0.567094 0.444838 -11.36
LeftUpLeg  -9.11804 19.1597 -2.42464
LeftLeg  9.27773 24.4081 2.31733
LeftFoot  0.261529 -0.000889752 0.238081
LeftToes  -19.0691 1.87998e-006 4.79886e-008
153
root  54.7274 34.5835 -59.2977 12.7315 -49.4092 -2.86889
RightUpLeg  -14.3521 -13.6055 4.4833
RightLeg  8.62856 -1.11365 -0.0951884
RightFoot  3.56927 0.0115276 0.0207405
RightToes  -20.7276 -0.0836207 -0.179791
Spine  -1.58798 -0.456729 0.0849953
Spine1  -3.21648 -0.972747 0.797843
HEad  -67.6141 -0.779007 7.99777
LeftShoulder1  -1.94126e-019 -3.10601e-018 -2.51263e-017
LeftArm  -16.9706 21.6224 -80.7688
LeftForeArm  39.2733 -14.3056 -2.5313
LeftHand  -0.467793 -1.34869 8.21743
RightShoulder  -4.96962e-017 0 -2.36833e-017
RightArm  -32.8926 -26.5669 76.9075
RightForeArm  54.4588 14.7393 1.1871
RightHand  -0.398616 -0.434886 -9.34304
LeftUpLeg  -8.9082 18.8701 -2.319
LeftLeg  9.47167 25.8111 2.52669
LeftFoot  0.168923 -6.47015e-005 0.205626
LeftToes  -18.7174 1.87998e-006 4.79886e-008
154
root  54.6542 34.5938 -59.3327 12.7662 -50.0471 -2.88607
RightUpLeg  -13.8421 -12.7069 4.47569
RightLeg  7.62836 -1.35164 -0.0919963
RightFoot  4.0461 0.0138102 -0.00117646
RightToes  -20.8251 -0.0829348 -0.178432
Spine  -1.63298 -0.470829 0.201154
Spine1  -3.31047 -0.978608 1.02564
HEad  -67.5905 -0.546141 7.90532
LeftShoulder1  -1.94126e-019 -3.10601e-018 -2.51263e-017
LeftArm  -14.9955 22.1128 -82.5304
LeftForeArm  36.8499 -17.8798 -3.08007
LeftHand  -0.432285 -1.72757 7.22885
RightShoulder  -4.96962e-017 0 -2.36833e-017
RightArm  -31.7602 -26.6465 76.926
RightForeArm  53.096 15.8696 1.11884
RightHand  -0.36256 -0.593736 -8.76091
LeftUpLeg  -9.07487 18.5857 -2.27441
LeftLeg  10.092 26.7277 2.89132
LeftFoot  -0.0321249 -1.46559e-005 0.108593
LeftToes  -18.2041 1.87998e-006 4.79886e-008
155
root  54.5737 34.5963 -59.3876 12.9058 -50.3757 -3.00777
RightUpLeg  -13.637 -12.4783 4.68088
RightLeg  7.1665 -1.25157 -0.074977
RightFoot  4.15546 0.0140115 0.00553677
RightToes  -20.0946 -0.082421 -0.177111
Spine  -1.67788 -0.516139 0.324491
Spine1  -3.40197 -1.04891 1.26923
HEad  -68.1809 -0.213793 8.08998
LeftShoulder1  -1.94126e-019 -3.10601e-018 -2.51263e-017
LeftArm  -11.6464 21.9862 -83.6576
LeftForeArm  35.1995 -21.1635 -3.51251
LeftHand  -0.406283 -2.06966 6.51741
RightShoulder  -4.96962e-017 0 -2.36833e-017
RightArm  -31.2249 -26.519 76.898
RightForeArm  52.4528 16.2968 1.12803
RightHand  -0.384414 -0.556698 -9.22422
LeftUpLeg  -9.51676 19.7072 -2.10913
LeftLeg  11.0341 25.9509 3.2303
LeftFoot  -0.410475 -0.000848477 -0.0753253
LeftToes  -18.0844 1.87998e-006 4.79886e-008
156
root  54.493 34.5995 -59.4399 13.054 -50.352 -3.01449
RightUpLeg  -13.5827 -13.0195 4.89872
RightLeg  6.84334 -0.656488 -0.0350943
RightFoot  4.20501 0.0116368 0.0478225
RightToes  -20.3134 -0.082061 -0.175859
Spine  -1.76714 -0.628093 0.437247
Spine1  -3.5804 -1.25341 1.49674
HEad  -68.8665 0.121397 8.34839
LeftShoulder1  -1.94126e-019 -3.10601e-018 -2.51263e-017
LeftArm  -7.91516 21.4662 -84.3622
LeftForeArm  34.8625 -23.9018 -3.82382
LeftHand  -0.397657 -2.05388 6.39535
RightShoulder  -4.96962e-017 0 -2.36833e-017
RightArm  -31.4253 -26.1897 76.8268
RightForeArm  52.7654 16.0999 1.12029
RightHand  -0.407951 -0.537404 -9.75404
LeftUpLeg  -9.84544 20.4725 -1.99487
LeftLeg  11.4537 25.1458 3.31766
LeftFoot  -0.622823 -0.00178781 -0.167373
LeftToes  -18.2828 1.87998e-006 4.79886e-008
